<svg xmlns="http://www.w3.org/2000/svg" version="1.1" xmlns:xlink="http://www.w3.org/1999/xlink" width="512" height="512" x="0" y="0" viewBox="0 0 128 128" style="enable-background:new 0 0 512 512" xml:space="preserve" class=""><g><path fill="#b36615" d="M99 56a22 22 0 1 0 22 22 22 22 0 0 0-22-22zm0 38a16 16 0 1 1 16-16 16 16 0 0 1-16 16zM29 56a22 22 0 1 0 22 22 22 22 0 0 0-22-22zm0 38a16 16 0 1 1 16-16 16 16 0 0 1-16 16z" opacity="1" data-original="#b36615"></path><path fill="#668eff" d="M97.13 38.3h-1.692a1.75 1.75 0 0 0 0 3.5h1.692a6.727 6.727 0 1 0 0-13.454H84.453a1.75 1.75 0 0 0-1.674 2.259l1.983 6.53-34.079 3.544-2.465-8.116-3.348 1.016 2.664 8.773-20.05 34.774A1.75 1.75 0 0 0 29 79.75h31.187a1.749 1.749 0 0 0 1.317-.6L88.243 48.6l9.083 29.909A1.75 1.75 0 0 0 99 79.751a1.728 1.728 0 0 0 .509-.077 1.747 1.747 0 0 0 1.166-2.182L86.813 31.846H97.13a3.227 3.227 0 1 1 0 6.454zm-65.1 37.95 16.9-29.309 8.9 29.309zm28.917-1.774L51.719 44.09 85.8 40.546l1.247 4.107z" opacity="1" data-original="#455da0" class=""></path><path fill="#ffda2c" d="M41.768 28.02a2.4 2.4 0 0 0-2.521 3.291 5.7 5.7 0 0 0 4.835 3.735c4.313.509 12.983-1.289 12.983-1.289l-.059-.915a3.2 3.2 0 0 0-2.677-2.955c-3.011-.494-8.194-1.315-12.561-1.867z" opacity="1" data-original="#ffda2c"></path></g></svg>