<svg height="512" viewBox="0 0 128 128" width="512" xmlns="http://www.w3.org/2000/svg"><g><path d="m55 76c-6.462 6.755-15.87 13.5-35.151 16.12-4.675.635-13.349.26-13.349-28.12s8.674-28.755 13.349-28.12c19.281 2.62 28.689 9.365 35.151 16.12l2.625 6.5v13z" fill="#f7502f"/><path d="m73 76c6.462 6.755 15.87 13.5 35.151 16.12 4.675.635 13.349.26 13.349-28.12s-8.674-28.755-13.349-28.12c-19.281 2.62-28.689 9.365-35.151 16.12l-2.625 6.5v13z" fill="#f7502f"/><g fill="#d93922"><path d="m113.447 83.735a1.748 1.748 0 0 1 -1.657-2.313 29.312 29.312 0 0 0 1.088-4.534 1.75 1.75 0 1 1 3.451.578 32.774 32.774 0 0 1 -1.225 5.083 1.751 1.751 0 0 1 -1.657 1.186z"/><g><path d="m73 60.65a1.749 1.749 0 0 1 -.71-3.349 75.1 75.1 0 0 1 19.95-5.432 1.75 1.75 0 0 1 .52 3.461c-9.9 1.485-15.38 3.544-19.051 5.17a1.727 1.727 0 0 1 -.709.15z"/><path d="m92.5 76.15a1.667 1.667 0 0 1 -.262-.019 75.1 75.1 0 0 1 -19.947-5.431 1.75 1.75 0 1 1 1.418-3.2c3.671 1.626 9.153 3.685 19.051 5.17a1.75 1.75 0 0 1 -.258 3.48z"/><path d="m55 60.65a1.727 1.727 0 0 1 -.708-.15c-3.67-1.626-9.152-3.684-19.051-5.17a1.75 1.75 0 0 1 .52-3.461 75.114 75.114 0 0 1 19.948 5.431 1.749 1.749 0 0 1 -.709 3.35z"/><path d="m35.5 76.15a1.75 1.75 0 0 1 -.258-3.48c9.9-1.486 15.381-3.544 19.051-5.17a1.75 1.75 0 1 1 1.418 3.2 75.114 75.114 0 0 1 -19.951 5.431 1.667 1.667 0 0 1 -.26.019z"/></g><path d="m73 52h-18s-1.83 4.38-1.83 12 1.83 12 1.83 12h18s1.83-4.38 1.83-12-1.83-12-1.83-12z"/></g></g></svg>