<svg height="512" viewBox="0 0 128 128" width="512" xmlns="http://www.w3.org/2000/svg"><g><path d="m14.636 59.614h98.727v52.727h-98.727z" fill="#ff984a"/><path d="m86.046 47.25h-7v-18.091a6.508 6.508 0 0 0 -6.5-6.5h-17.092a6.508 6.508 0 0 0 -6.5 6.5v18.091h-7v-18.091a13.515 13.515 0 0 1 13.5-13.5h17.092a13.515 13.515 0 0 1 13.5 13.5z" fill="#ad836e"/><path d="m115.273 67.235q-51.273 25.485-102.546 0a5.037 5.037 0 0 1 -2.818-4.5v-19.212a5 5 0 0 1 5-5h98.182a5 5 0 0 1 5 5v19.212a5.037 5.037 0 0 1 -2.818 4.5z" fill="#e68943"/><rect fill="#ad836e" height="18.818" rx="5" width="18.818" x="54.591" y="70.568"/></g></svg>