<svg height="512" viewBox="0 0 128 128" width="512" xmlns="http://www.w3.org/2000/svg"><g><g fill="#896748"><path d="m79.888 80.041h28.741v12.88h-28.741z"/><path d="m19.372 80.041h28.741v12.88h-28.741z"/><path d="m19.372 105.8h28.741v12.88h-28.741z"/><path d="m79.888 105.8h28.741v12.88h-28.741z"/></g><path d="m48.112 80.041h31.775v38.639h-31.775z" fill="#fedb41"/><path d="m120.283 65.638-43.678-35.128h-25.21l-43.678 35.128-5.967-7.419 46.293-37.23h31.914l46.293 37.23z" fill="#5d452f"/><circle cx="64" cy="54.282" fill="#e5e5e5" r="12.88"/><path d="m90.147 41.402-13.542-10.892h-25.21l-13.542 10.892z" fill="#896748"/><g fill="#896748"><path d="m51.12 54.282h-29.282l-2.466 1.983v10.9h44.628a12.88 12.88 0 0 1 -12.88-12.883z"/><path d="m106.162 54.282h-29.282a12.88 12.88 0 0 1 -12.88 12.879h44.628v-10.9z"/></g><g fill="#73553a"><path d="m19.372 67.161h89.257v12.88h-89.257z"/><path d="m19.372 92.921h28.741v12.88h-28.741z"/><path d="m79.888 92.921h28.741v12.88h-28.741z"/><g><path d="m90.147 41.4h-26.147a12.88 12.88 0 0 1 12.88 12.88h29.282z"/><path d="m21.838 54.282h29.282a12.88 12.88 0 0 1 12.88-12.882h-26.147z"/></g></g><path d="m70.605 103.364a1.75 1.75 0 0 1 -1.75-1.75v-6.248a1.75 1.75 0 0 1 3.5 0v6.248a1.749 1.749 0 0 1 -1.75 1.75z" fill="#6e77e5"/><rect fill="#73553a" height="9.821" rx="1.904" width="23.836" x="90.105" y="9.32"/><path d="m108.628 44.047v-24.906h-13.21v14.282z" fill="#896748"/></g></svg>