<?xml version="1.0" encoding="iso-8859-1"?>
<!-- Generator: Adobe Illustrator 19.0.0, SVG Export Plug-In . SVG Version: 6.00 Build 0)  -->
<svg version="1.1" id="Capa_1" xmlns="http://www.w3.org/2000/svg" xmlns:xlink="http://www.w3.org/1999/xlink" x="0px" y="0px"
	 viewBox="0 0 328.8 328.8" style="enable-background:new 0 0 328.8 328.8;" xml:space="preserve">
<g>
	<path style="fill:#263645;" d="M13.2,84C6,84,0,90,0,97.2V258c0,7.2,6,13.2,13.2,13.2h302.4c7.2,0,13.2-6,13.2-13.2V97.2
		c0-7.2-6-13.2-13.2-13.2H13.2z"/>
	<path style="fill:#263645;" d="M210.8,84c0-14.4-12.4-26.4-27.2-26.4h-38c-14.8,0-27.2,12-27.2,26.4H210.8z"/>
</g>
<g>
	<path style="fill:#2D3F4C;" d="M20,258V97.2C20,90,26,84,33.2,84H13.6C6.4,84,0.4,90,0.4,97.2V258c0,7.2,6,13.2,13.2,13.2h19.6
		C25.6,271.2,20,265.2,20,258z"/>
	<path style="fill:#2D3F4C;" d="M165.2,57.6h-19.6c-14.8,0-27.2,12-27.2,26.4H138C138,69.6,150,57.6,165.2,57.6z"/>
</g>
<path style="fill:#BEC3C7;" d="M86.4,84c0-7.6-6.4-13.6-14-13.6H52.8c-7.6,0-14,6-14,13.6H86.4z"/>
<path style="fill:#D0D5D8;" d="M62.4,70.8h-9.6c-7.6,0-14,6-14,13.6h9.6C48.8,76.8,54.8,70.8,62.4,70.8z"/>
<path style="fill:#FFFFFF;" d="M226,192c0,34-27.6,61.6-61.6,61.6S102.8,226,102.8,192s27.6-61.6,61.6-61.6S226,158.4,226,192z"/>
<path style="fill:#1BB5FF;" d="M211.6,192c0,26-21.2,47.2-47.2,47.2S117.2,218,117.2,192s21.2-47.2,47.2-47.2
	C190.4,145.2,211.6,166,211.6,192z"/>
<rect y="107.6" style="fill:#FFFFFF;" width="328.4" height="10.8"/>
<circle style="fill:#DB4F38;" cx="39.2" cy="148" r="14.8"/>
<g>
	<path style="fill:#FFFFFF;" d="M304.4,144.4H250c-3.2,0-5.6-2.4-5.6-5.6c0-3.2,2.4-5.6,5.6-5.6h54.4c3.2,0,5.6,2.4,5.6,5.6
		C309.6,142,307.2,144.4,304.4,144.4z"/>
	<path style="fill:#FFFFFF;" d="M304.4,163.2H250c-3.2,0-5.6-2.4-5.6-5.6c0-3.2,2.4-5.6,5.6-5.6h54.4c3.2,0,5.6,2.4,5.6,5.6
		C309.6,160.4,307.2,163.2,304.4,163.2z"/>
</g>
<g>
	<path style="fill:#B3F1FF;" d="M164.4,145.2c-4.4,0-8.8,0.8-12.8,2L124,216.4c3.2,5.2,7.2,10,12,13.6l33.6-84.4
		C168,145.2,166,145.2,164.4,145.2z"/>
	<path style="fill:#B3F1FF;" d="M182.8,148.8L148,236.4c5.2,2,10.4,2.8,16.4,2.8c6.8,0,13.2-1.6,18.8-4l24.4-61.6
		C203.2,162.8,194,153.6,182.8,148.8z"/>
</g>
<g>
</g>
<g>
</g>
<g>
</g>
<g>
</g>
<g>
</g>
<g>
</g>
<g>
</g>
<g>
</g>
<g>
</g>
<g>
</g>
<g>
</g>
<g>
</g>
<g>
</g>
<g>
</g>
<g>
</g>
</svg>
