<svg height="512" viewBox="0 0 128 128" width="512" xmlns="http://www.w3.org/2000/svg"><g><path d="m119.024 69.132-24.916-3.227-2.138-24.648a5.131 5.131 0 0 0 -4.977-4.976h-74a5.1 5.1 0 0 0 -4.983 4.976l-4 57.788h119.99v-24.935c0-2.758-2.242-4.624-4.976-4.978z" fill="#fdcb72"/><path d="m62.3 60.9a1.751 1.751 0 0 0 -1.75 1.75v28.33a1.75 1.75 0 0 0 3.5 0v-28.327a1.75 1.75 0 0 0 -1.75-1.753z" fill="#fbb059"/><path d="m4.011 99.045a4.855 4.855 0 0 0 4.978 4.979h110.035a4.967 4.967 0 0 0 4.976-4.979v-8.065h-119.431z" fill="#6b6faf"/><circle cx="32.668" cy="104.021" fill="#4d5796" r="14.892"/><path d="m32.668 97.427a6.594 6.594 0 1 0 6.594 6.594 6.594 6.594 0 0 0 -6.594-6.594z" fill="#ebe9f5"/><circle cx="95.343" cy="104.021" fill="#4d5796" r="14.892" transform="matrix(.099 -.995 .995 .099 -17.567 188.65)"/><path d="m95.343 97.427a6.594 6.594 0 1 0 6.594 6.594 6.595 6.595 0 0 0 -6.594-6.594z" fill="#ebe9f5"/><rect fill="#e2966e" height="23.94" rx="4.977" width="58.763" x="19.786" y="12.337"/><g fill="#6b6faf"><path d="m36.552 9.087h-4.346a3.242 3.242 0 0 0 -3.249 3.25v23.94h10.843v-23.94a3.242 3.242 0 0 0 -3.248-3.25z"/><path d="m66.129 9.087h-4.345a3.242 3.242 0 0 0 -3.25 3.25v23.94h10.844v-23.94a3.242 3.242 0 0 0 -3.249-3.25z"/></g><path d="m49.03 45.038h-29.458a3.148 3.148 0 0 0 -3.14 2.919l-1.1 15.024a2.72 2.72 0 0 0 2.714 2.919h30.984a2.926 2.926 0 0 0 2.926-2.926v-15.009a2.926 2.926 0 0 0 -2.926-2.927z" fill="#33c4ee"/><path d="m88.08 45.038c-.083 0-.166 0-.249.011a2.889 2.889 0 0 0 -2.631 3.128l1.265 14.587a3.437 3.437 0 0 0 3.426 3.136h4.217l-1.808-20.862z" fill="#33c4ee"/><path d="m5.529 77.113-.96 13.867h13.9a13.9 13.9 0 0 0 -12.94-13.867z" fill="#f37a8c"/><path d="m113.259 90.98h10.741v-11.51a11.539 11.539 0 0 0 -10.741 11.51z" fill="#ebe9f5"/><path d="m72.6 45.038h-8.8a3.243 3.243 0 0 0 -3.25 3.25v17.612h13.857c.083 0 .166 0 .249-.01a2.889 2.889 0 0 0 2.629-3.128l-1.265-14.584a3.436 3.436 0 0 0 -3.42-3.14z" fill="#33c4ee"/><path d="m51.957 75.07h-16.452a1.75 1.75 0 1 0 0 3.5h16.452a1.75 1.75 0 0 0 0-3.5z" fill="#6b6faf"/></g></svg>