<svg height="512" viewBox="0 0 128 128" width="512" xmlns="http://www.w3.org/2000/svg"><g><g><g fill="#73ad43"><path d="m60.881 87.045h-53.58l14.61-18.69-8.18 1.96 15.68-20.5-8.71 1.59 13.39-20.18 13.39 20.18-8.71-1.59 15.68 20.5-8.18-1.96z"/><path d="m120.698 87.045h-53.58l14.61-18.69-8.18 1.96 15.68-20.5-8.71 1.59 13.391-20.18 13.389 20.18-8.71-1.59 15.68 20.5-8.18-1.96z"/></g><path d="m77.7 34.125a15 15 0 1 1 -12.92-23.44 15.007 15.007 0 0 0 12.4 23.45c.171 0 .351 0 .52-.01z" fill="#fec82a"/></g><g><path d="m89.546 61.346h-48.319a5 5 0 0 0 -4.5 2.822l-25.727 53.147h78.546z" fill="#e86f04"/><path d="m89.55 61.34v55.98h-30.82l26.12-53.05a5.182 5.182 0 0 1 4.7-2.93z" fill="#fec82a"/><path d="m120.36 117.32h-30.81v-55.98a5.182 5.182 0 0 1 4.7 2.93z" fill="#faab3f"/><path d="m102.37 102.18v15.14h-12.82v-32.28s3.27 13.05 12.82 17.14z" fill="#e98123"/></g></g></svg>