<svg width="18" height="18" viewBox="0 0 18 18" fill="none" xmlns="http://www.w3.org/2000/svg">
<path d="M14.85 9H3.15004C2.98504 9 2.83504 8.8875 2.78254 8.73C0.720037 1.9125 11.13 -0.705005 12.3375 6.615C13.5825 6.77249 14.565 7.47749 15.1725 8.42249C15.33 8.66999 15.1425 9 14.85 9Z" fill="#CAB8FF"/>
<path d="M15 11.835H3C2.6925 11.835 2.4375 11.58 2.4375 11.2725C2.4375 10.965 2.6925 10.71 3 10.71H15C15.3075 10.71 15.5625 10.965 15.5625 11.2725C15.5625 11.58 15.3075 11.835 15 11.835Z" fill="#CAB8FF"/>
<path d="M13.5 14.085H4.5C4.1925 14.085 3.9375 13.83 3.9375 13.5225C3.9375 13.215 4.1925 12.96 4.5 12.96H13.5C13.8075 12.96 14.0625 13.215 14.0625 13.5225C14.0625 13.83 13.8075 14.085 13.5 14.085Z" fill="#CAB8FF"/>
<path d="M11.25 16.335H6.75C6.4425 16.335 6.1875 16.08 6.1875 15.7725C6.1875 15.465 6.4425 15.21 6.75 15.21H11.25C11.5575 15.21 11.8125 15.465 11.8125 15.7725C11.8125 16.08 11.5575 16.335 11.25 16.335Z" fill="#CAB8FF"/>
</svg>
