<svg width="18" height="18" viewBox="0 0 18 18" fill="none" xmlns="http://www.w3.org/2000/svg">
<path d="M7.5 2.8125H8.4375V6.375C8.4375 6.6825 8.6925 6.9375 9 6.9375C9.3075 6.9375 9.5625 6.6825 9.5625 6.375V2.8125H10.5C10.8075 2.8125 11.0625 2.5575 11.0625 2.25C11.0625 1.9425 10.8075 1.6875 10.5 1.6875H7.5C7.1925 1.6875 6.9375 1.9425 6.9375 2.25C6.9375 2.5575 7.1925 2.8125 7.5 2.8125Z" fill="#46BDF0"/>
<path d="M10.5 15.1875H9.5625V11.625C9.5625 11.3175 9.3075 11.0625 9 11.0625C8.6925 11.0625 8.4375 11.3175 8.4375 11.625V15.1875H7.5C7.1925 15.1875 6.9375 15.4425 6.9375 15.75C6.9375 16.0575 7.1925 16.3125 7.5 16.3125H10.5C10.8075 16.3125 11.0625 16.0575 11.0625 15.75C11.0625 15.4425 10.8075 15.1875 10.5 15.1875Z" fill="#46BDF0"/>
<path d="M2.12253 7.41001C2.21253 7.46251 2.31003 7.48501 2.40003 7.48501C2.59503 7.48501 2.78253 7.38751 2.88753 7.20001L3.36003 6.39001L6.45003 8.17501C6.53253 8.22751 6.63003 8.25001 6.72753 8.25001C6.92253 8.25001 7.11003 8.15251 7.21503 7.96501C7.37253 7.70251 7.27503 7.35751 7.01253 7.20001L3.92253 5.41501L4.38753 4.60501C4.54503 4.33501 4.44753 3.99001 4.18503 3.84001C3.91503 3.68251 3.57003 3.77251 3.42003 4.04251L1.92003 6.63751C1.76253 6.91501 1.85253 7.25251 2.12253 7.41001Z" fill="#46BDF0"/>
<path d="M15.8773 10.59C15.6073 10.4325 15.2623 10.5225 15.1123 10.7925L14.6398 11.6025L11.5498 9.825C11.2798 9.6675 10.9348 9.765 10.7848 10.0275C10.6273 10.2975 10.7248 10.6425 10.9873 10.7925L14.0698 12.5775L13.6048 13.3875C13.4473 13.6575 13.5448 14.0025 13.8073 14.1525C13.8973 14.205 13.9948 14.2275 14.0848 14.2275C14.2798 14.2275 14.4673 14.13 14.5723 13.9425L16.0723 11.3475C16.2373 11.085 16.1473 10.7475 15.8773 10.59Z" fill="#46BDF0"/>
<path d="M14.0775 5.41502L10.9875 7.20002C10.7175 7.35752 10.6275 7.70252 10.785 7.96502C10.89 8.14502 11.0775 8.25002 11.2725 8.25002C11.37 8.25002 11.4675 8.22752 11.55 8.17502L14.6325 6.39002L15.105 7.20002C15.21 7.38002 15.3975 7.48502 15.5925 7.48502C15.69 7.48502 15.7875 7.46252 15.87 7.41002C16.14 7.25252 16.23 6.90752 16.0725 6.64502L14.5725 4.05002C14.415 3.78002 14.07 3.69002 13.8075 3.84752C13.5375 4.00502 13.4475 4.35002 13.605 4.61252L14.0775 5.41502Z" fill="#46BDF0"/>
<path d="M3.92253 12.585L7.00503 10.8C7.27503 10.6425 7.36503 10.2975 7.20753 10.035C7.05003 9.76501 6.70503 9.675 6.44253 9.8325L3.36003 11.6175L2.88753 10.8075C2.73003 10.5375 2.38503 10.4475 2.12253 10.605C1.85253 10.7625 1.76253 11.1075 1.92003 11.37L3.42003 13.965C3.52503 14.145 3.71253 14.25 3.90753 14.25C4.00503 14.25 4.10253 14.2275 4.18503 14.175C4.45503 14.0175 4.54503 13.6725 4.38753 13.41L3.92253 12.585Z" fill="#46BDF0"/>
<path d="M11.625 9C11.625 9.48 11.4975 9.9225 11.2725 10.3125C10.815 11.1 9.9675 11.625 9 11.625C8.0325 11.625 7.185 11.1 6.7275 10.3125C6.5025 9.9225 6.375 9.48 6.375 9C6.375 8.52 6.5025 8.0775 6.7275 7.6875C7.185 6.9 8.0325 6.375 9 6.375C9.9675 6.375 10.815 6.9 11.2725 7.6875C11.4975 8.0775 11.625 8.52 11.625 9Z" fill="#46BDF0"/>
</svg>
