<svg height="512" viewBox="0 0 128 128" width="512" xmlns="http://www.w3.org/2000/svg"><g><path d="m116.443 89.659-11.222-6.479 8.2-4.912a4 4 0 1 0 -4.112-6.862l-12.015 7.194-5.26-3.038 6.6-5.7-3.924-4.54-8.178 7.068-4.852-2.8a18.509 18.509 0 0 0 0-11.178l4.856-2.8 8.171 7.062 3.924-4.539-6.593-5.7 5.256-3.035 12.013 7.2a4 4 0 0 0 4.112-6.863l-8.2-4.911 11.222-6.479a4 4 0 1 0 -4-6.929l-11.222 6.479-.155-9.555a4 4 0 0 0 -8 .13l.227 14-5.255 3.028-1.636-8.56-5.9 1.128 2.035 10.612-4.879 2.82a18.524 18.524 0 0 0 -9.656-5.6v-5.614l10.2-3.546-1.97-5.668-8.23 2.862v-6.07l12.239-6.8a4 4 0 1 0 -3.887-6.992l-8.352 4.639v-12.958a4 4 0 0 0 -8 0v12.958l-8.353-4.643a4 4 0 0 0 -3.887 6.992l12.24 6.804v6.07l-8.234-2.862-1.966 5.668 10.2 3.546v5.614a18.524 18.524 0 0 0 -9.656 5.6l-4.879-2.82 2.035-10.612-5.9-1.128-1.636 8.56-5.258-3.036.227-14a4 4 0 0 0 -8-.13l-.155 9.555-11.222-6.477a4 4 0 0 0 -4 6.929l11.223 6.479-8.2 4.911a4 4 0 0 0 4.112 6.863l12.013-7.2 5.256 3.035-6.593 5.7 3.924 4.539 8.171-7.062 4.856 2.8a18.509 18.509 0 0 0 0 11.178l-4.852 2.8-8.175-7.065-3.924 4.54 6.6 5.7-5.261 3.041-12.013-7.2a4 4 0 0 0 -4.112 6.862l8.2 4.912-11.225 6.485a4 4 0 0 0 4 6.929l11.223-6.48.155 9.555a4 4 0 0 0 8-.129l-.227-14 5.258-3.034 1.635 8.554 5.9-1.128-2.034-10.607 4.878-2.819a18.524 18.524 0 0 0 9.656 5.6v5.61l-10.2 3.544 1.97 5.668 8.23-2.862v6.076l-12.24 6.8a4 4 0 0 0 3.887 6.992l8.353-4.639v12.958a4 4 0 1 0 8 0v-12.958l8.352 4.643a4 4 0 1 0 3.887-6.992l-12.239-6.804v-6.076l8.234 2.862 1.97-5.668-10.204-3.546v-5.608a18.524 18.524 0 0 0 9.656-5.6l4.878 2.816-2.034 10.61 5.9 1.128 1.635-8.554 5.259 3.037-.227 14a4 4 0 0 0 8 .129l.155-9.555 11.222 6.48a4 4 0 1 0 4-6.929z" fill="#70acfb"/><path d="m73.75 69.626v-11.258l-9.75-5.629-9.75 5.629v11.258l9.75 5.629z" fill="#4c82e5"/></g></svg>