<svg height="512" viewBox="0 0 128 128" width="512" xmlns="http://www.w3.org/2000/svg"><g><path d="m95.52 69.333h-6.5a7.1 7.1 0 0 1 -7.17 7.04h-56.6l3.14-17.13h60.92z" fill="#ffe36e"/><path d="m78.398 59.243h-50.012l2.796-15.22h39.696z" fill="#ff8a5b"/><path d="m45.475 25.827h-11.737l2.108 18.196h19.19z" fill="#ea4444"/><path d="m109 69.333-9.385 23.856a14.175 14.175 0 0 1 -13.189 8.984h-60.866l-6.56-25.8h62.85a7.1 7.1 0 0 0 7.17-7.04z" fill="#6ed1d3"/><g fill="#fff8d9"><path d="m42.61 67.808a2.526 2.526 0 1 1 -2.525-2.526 2.526 2.526 0 0 1 2.525 2.526z"/><path d="m54.023 67.808a2.526 2.526 0 1 1 -2.523-2.526 2.525 2.525 0 0 1 2.523 2.526z"/><path d="m65.436 67.808a2.526 2.526 0 1 1 -2.525-2.526 2.525 2.525 0 0 1 2.525 2.526z"/><path d="m77.254 67.808a2.526 2.526 0 1 1 -2.525-2.526 2.525 2.525 0 0 1 2.525 2.526z"/><path d="m62.911 86.632h-41.748a1.75 1.75 0 1 1 0-3.5h41.748a1.75 1.75 0 0 1 0 3.5z"/><path d="m75.728 86.632h-3.036a1.75 1.75 0 0 1 0-3.5h3.036a1.75 1.75 0 1 1 0 3.5z"/></g><path d="m73.774 49.883h-20.382a1.75 1.75 0 0 0 0 3.5h21.247a1.731 1.731 0 0 0 .772-.187zm-27.869 0h-3.037a1.75 1.75 0 0 0 0 3.5h3.037a1.75 1.75 0 0 0 0-3.5z" fill="#ffe36e"/></g></svg>