<svg xmlns="http://www.w3.org/2000/svg" version="1.1" xmlns:xlink="http://www.w3.org/1999/xlink" width="512" height="512" x="0" y="0" viewBox="0 0 128 128" style="enable-background:new 0 0 512 512" xml:space="preserve" class=""><g><rect width="14.911" height="59.432" x="37.416" y="53.412" fill="#ffb42e" rx="4.838" transform="rotate(-45 44.859 83.142)" opacity="1" data-original="#ffb42e"></rect><path fill="#fc4c4c" d="M86.276 20.426a4.839 4.839 0 0 0-6.842 0l-5.1 5.1 28.14 28.14 5.1-5.1a4.839 4.839 0 0 0 0-6.842zM20.426 79.434a4.839 4.839 0 0 0 0 6.842l21.3 21.3a4.839 4.839 0 0 0 6.842 0l5.1-5.1L25.53 74.33z" opacity="1" data-original="#ffe36e" class=""></path><path fill="#58beb7" d="M21.531 94.308a4.839 4.839 0 0 0 0 6.842l5.319 5.319a4.839 4.839 0 0 0 6.842 0l3.464-3.464L25 90.844zM101.15 21.531a4.839 4.839 0 0 0-6.842 0L90.844 25l12.161 12.161 3.464-3.464a4.839 4.839 0 0 0 0-6.842z" opacity="1" data-original="#65d6ce" class=""></path><rect width="14.911" height="59.432" x="75.673" y="15.155" fill="#ffb42e" rx="4.838" transform="rotate(-45 83.128 44.89)" opacity="1" data-original="#ffb42e"></rect><path fill="#58beb7" d="m44.052 71.775 27.709-27.709 12.159 12.16L56.21 83.933z" opacity="1" data-original="#65d6ce" class=""></path></g></svg>