<svg xmlns="http://www.w3.org/2000/svg" version="1.1" xmlns:xlink="http://www.w3.org/1999/xlink" width="512" height="512" x="0" y="0" viewBox="0 0 128 128" style="enable-background:new 0 0 512 512" xml:space="preserve"><g><path fill="#5ccafe" d="M80.118 84.876H68.9v-8.529a28.884 28.884 0 1 0-25.334-8.027A28.731 28.731 0 0 0 59.1 76.347v8.529H47.884a4.9 4.9 0 1 0 0 9.8H59.1v9.432a4.9 4.9 0 0 0 9.805 0v-9.427h11.213a4.9 4.9 0 0 0 0-9.8zM50.5 34.384a19.094 19.094 0 1 1 0 27 19.118 19.118 0 0 1 0-27z" opacity="1" data-original="#f26e53"></path></g></svg>