<svg height="512" viewBox="0 0 128 128" width="512" xmlns="http://www.w3.org/2000/svg"><g><path d="m104.292 93.616a14.974 14.974 0 0 1 -28.866-7.293 90.1 90.1 0 0 0 -26.239-3.682h-.207v30.026c-1.6.16-3.28.25-5 .25s-3.4-.09-5-.25v-29.51c-21.291 2.166-37.23 10.959-37.23 21.484 0 12.15 21.238 22 47.437 22 17.737 0 33.19-4.518 41.329-11.2a66.221 66.221 0 0 0 7.984.476c15.326 0 27.75-5.047 27.75-11.272 0-5.423-9.413-9.945-21.958-11.029z" fill="#97de3d"/><path d="m48.98 9.359v103.31c-1.6.16-3.28.25-5 .25s-3.4-.09-5-.25v-103.31z" fill="#596c76"/><path d="m51.314 9.359h-14.66a4 4 0 0 1 -4-4 4 4 0 0 1 4-4h14.66a4 4 0 0 1 4 4 4 4 0 0 1 -4 4z" fill="#ffda2d"/><path d="m48.984 59.925v-42.938l47.242 21.469z" fill="#ff9100"/><g fill="#465a61"><path d="m38.98 96.621c-8.835.908-15.383 4.149-15.383 8.02s6.548 7.112 15.383 8.019z"/><path d="m48.98 96.62v16.041c8.839-.906 15.391-4.148 15.391-8.02s-6.552-7.114-15.391-8.021z"/></g><circle cx="90.281" cy="88.296" fill="#e0f4ff" r="15"/><g fill="#bcdcfd"><path d="m89.875 81.186h-.75a1.75 1.75 0 0 1 0-3.5h.75a1.75 1.75 0 0 1 0 3.5z"/><path d="m97.375 84.936h-.75a1.75 1.75 0 0 1 0-3.5h.75a1.75 1.75 0 0 1 0 3.5z"/><path d="m91.609 89.3h-.75a1.75 1.75 0 0 1 0-3.5h.75a1.75 1.75 0 0 1 0 3.5z"/></g></g></svg>