<svg id="Capa_1" enable-background="new 0 0 512 512" height="512" viewBox="0 0 512 512" width="512" xmlns="http://www.w3.org/2000/svg"><path d="m190.916 222.516h129.372v58.756h-129.372z" fill="#42ccb2" transform="matrix(.707 -.707 .707 .707 -103.252 254.516)"/><g fill="#fcd163"><path d="m347.856 118.094 10.363-10.363c4.893-4.89 12.822-4.894 17.72-.008l23.813 23.813c4.897 4.897 4.897 12.837 0 17.734l-10.361 10.361z"/><path d="m164.267 384.776-10.363 10.363c-4.897 4.897-12.837 4.897-17.734 0l-23.813-23.813c-4.897-4.897-4.897-12.837 0-17.734l10.363-10.363z"/><path d="m266.45 379.956-7.911 7.911c-7.106 7.106-18.627 7.106-25.733 0l-113.177-113.177c-7.106-7.106-7.106-18.627 0-25.733l7.911-7.911c7.106-7.106 18.627-7.106 25.733 0l113.177 113.177c7.106 7.106 7.106 18.627 0 25.733z"/></g><path d="m207.401 388.195-7.911 7.911c-7.106 7.106-18.627 7.106-25.733 0l-62.367-62.367c-7.106-7.106-7.106-18.627 0-25.733l7.911-7.911c7.106-7.106 18.627-7.106 25.733 0l62.367 62.367c7.106 7.106 7.106 18.627 0 25.733z" fill="#f4b13b"/><path d="m244.75 123.832 7.911-7.911c7.106-7.106 18.627-7.106 25.733 0l113.177 113.177c7.106 7.106 7.106 18.627 0 25.733l-7.911 7.911c-7.106 7.106-18.627 7.106-25.733 0l-113.177-113.177c-7.106-7.106-7.106-18.627 0-25.733z" fill="#fcd163"/><path d="m303.799 115.593 7.911-7.911c7.106-7.106 18.627-7.106 25.733 0l62.367 62.367c7.106 7.106 7.106 18.627 0 25.733l-7.911 7.911c-7.106 7.106-18.627 7.106-25.733 0l-62.367-62.367c-7.106-7.106-7.106-18.627 0-25.733z" fill="#f4b13b"/></svg>