<svg height="512" viewBox="0 0 128 128" width="512" xmlns="http://www.w3.org/2000/svg"><g><path d="m30 18.948a14.988 14.988 0 0 0 -3.7 3.569l-19.3 26.421 23 16.8h68l23-16.8-19.3-26.421a15.005 15.005 0 0 0 -3.7-3.569z" fill="#f93a88"/><path d="m46.969 14.923-10.769 1.607a15 15 0 0 0 -6.2 2.418v102.052h68v-102.052a15 15 0 0 0 -6.2-2.418l-10.769-1.607z" fill="#fe5f96"/><g fill="#fee8a8"><path d="m30 88.986a3.541 3.541 0 0 0 3.479.341 3.541 3.541 0 0 0 7.042 0 3.54 3.54 0 0 0 3.52-6.1 3.54 3.54 0 0 0 -3.52-6.1 3.541 3.541 0 0 0 -7.042 0 3.544 3.544 0 0 0 -3.479.346z"/><path d="m64 109.036a3.54 3.54 0 0 0 -7.041 0 3.54 3.54 0 0 0 -3.521 6.1 3.541 3.541 0 0 0 .2 5.866h10.362z"/><path d="m98 89.325a3.543 3.543 0 0 0 -3.481-.342 3.541 3.541 0 0 0 -7.042 0 3.54 3.54 0 0 0 -3.52 6.1 3.54 3.54 0 0 0 3.52 6.1 3.541 3.541 0 0 0 7.042 0 3.543 3.543 0 0 0 3.481-.347z"/></g><path d="m112.589 37.436a3.543 3.543 0 0 0 -3.212 3.156 3.54 3.54 0 0 0 -3.52 6.1 3.54 3.54 0 0 0 3.52 6.1 3.544 3.544 0 0 0 2.225 2.924l9.4-6.773z" fill="#ffd766"/><path d="m16.4 55.711a3.544 3.544 0 0 0 2.225-2.924 3.54 3.54 0 0 0 3.52-6.1 3.54 3.54 0 0 0 -3.52-6.1 3.543 3.543 0 0 0 -3.212-3.156l-8.413 11.507z" fill="#ffd766"/><path d="m86.8 61.837a2.916 2.916 0 0 0 -2.9-5.022 2.915 2.915 0 0 0 -5.8 0 2.916 2.916 0 0 0 -2.9 5.022 2.916 2.916 0 0 0 2.9 5.022 2.915 2.915 0 0 0 5.8 0 2.916 2.916 0 0 0 2.9-5.022z" fill="#fee8a8"/><path d="m52.8 53.745a2.915 2.915 0 0 0 -2.9-5.021 2.915 2.915 0 0 0 -5.8 0 2.915 2.915 0 0 0 -2.9 5.021 2.916 2.916 0 0 0 2.9 5.022 2.915 2.915 0 0 0 5.8 0 2.916 2.916 0 0 0 2.9-5.022z" fill="#fee8a8"/><path d="m62.25 33.97h3.5v87.03h-3.5z" fill="#f93a88"/><path d="m81.031 14.923 1 9.882h-6.771l1 5.462-12.26 6.703-12.26-6.703 1-5.462h-6.771l1-9.882 6.235-7.923h21.592z" fill="#fee8a8"/><path d="m53.204 7 10.796 29.97 10.796-29.97z" fill="#ffd766"/></g></svg>