<svg height="512" viewBox="0 0 128 128" width="512" xmlns="http://www.w3.org/2000/svg"><g><path d="m8.83 52.435h110.34v50.217h-110.34z" fill="#d1d1fd"/><path d="m119.17 57.627a4.823 4.823 0 0 0 4.177-7.234l-12.571-17.181a7.046 7.046 0 0 0 -6.1-3.524h-81.348a7.048 7.048 0 0 0 -6.1 3.522l-12.575 17.179a4.827 4.827 0 0 0 4.177 7.239z" fill="#f4677f"/><path d="m64.163 28.117-27.531 15.541v56.029h55.063v-56.029z" fill="#ecebfd"/><path d="m30.329 37.471a6.331 6.331 0 1 0 6.058 11.119l27.776-15.142 27.777 15.142a6.331 6.331 0 0 0 6.06-11.119l-30.808-16.788a6.335 6.335 0 0 0 -6.058 0z" fill="#ff7a8c"/><path d="m69.954 74.773h-11.581a3.619 3.619 0 0 0 -3.627 3.627v21.287h18.835v-21.287a3.62 3.62 0 0 0 -3.627-3.627z" fill="#e1966d"/><circle cx="64.163" cy="55.514" fill="#d1d1fd" r="9.014"/><path d="m23.311 68.422a5.887 5.887 0 0 0 -5.9 5.9v12.126h11.8v-12.126a5.887 5.887 0 0 0 -5.9-5.9z" fill="#30c3ef"/><path d="m105.016 68.422a5.887 5.887 0 0 0 -5.9 5.9v12.126h11.8v-12.126a5.887 5.887 0 0 0 -5.9-5.9z" fill="#30c3ef"/><path d="m62.145 88.685v-2.909a1.75 1.75 0 0 0 -3.5 0v2.909a1.75 1.75 0 0 0 3.5 0z" fill="#ffd3bc"/><path d="m119.17 108.088a4.2 4.2 0 0 0 0-8.4h-110.34a4.2 4.2 0 0 0 0 8.4z" fill="#696eaf"/></g></svg>