<svg height="512" viewBox="0 0 128 128" width="512" xmlns="http://www.w3.org/2000/svg"><g><path d="m100.074 41.88h-72.148a4.985 4.985 0 0 0 -4.984 4.984v62.136h82.116v-62.136a4.985 4.985 0 0 0 -4.984-4.984z" fill="#bde321"/><path d="m92.25 19h-56.5a4.983 4.983 0 0 0 -4.984 4.984v17.9h66.468v-17.9a4.983 4.983 0 0 0 -4.984-4.984z" fill="#fecd1a"/><path d="m52.544 86.145a2.693 2.693 0 0 0 -2.694 2.693v20.162h14.15v-22.855z" fill="#ea3883"/><path d="m75.456 86.145h-11.456v22.855h14.15v-20.162a2.693 2.693 0 0 0 -2.694-2.693z" fill="#ea3883"/><g fill="#2568ef"><path d="m34.743 48.979h9.644v9.644h-9.644z"/><path d="m59.178 48.979h9.644v9.644h-9.644z"/><path d="m83.613 48.979h9.644v9.644h-9.644z"/><path d="m34.743 67.628h9.644v9.644h-9.644z"/><path d="m59.178 67.628h9.644v9.644h-9.644z"/><path d="m83.613 67.628h9.644v9.644h-9.644z"/></g><g fill="#fffcee"><path d="m65.737 37.205a1.751 1.751 0 0 0 1.75-1.75v-8.28h1.547a1.75 1.75 0 0 0 0-3.5h-6.594a1.75 1.75 0 0 0 0 3.5h1.547v8.28a1.751 1.751 0 0 0 1.75 1.75z"/><path d="m59.442 32.158v-3.436a5.047 5.047 0 1 0 -10.093 0v3.436a5.047 5.047 0 1 0 10.093 0zm-6.593 0v-3.436a1.547 1.547 0 1 1 3.093 0v3.436a1.547 1.547 0 1 1 -3.093 0z"/><path d="m79.375 27.175a1.75 1.75 0 0 0 0-3.5h-4.594a1.751 1.751 0 0 0 -1.75 1.75v10.03a1.751 1.751 0 0 0 1.75 1.75h4.594a1.75 1.75 0 0 0 0-3.5h-2.844v-1.515h1.337a1.75 1.75 0 1 0 0-3.5h-1.337v-1.515z"/><path d="m85.123 23.675a1.75 1.75 0 0 0 -1.75 1.75v10.03a1.75 1.75 0 0 0 1.75 1.75h4.594a1.75 1.75 0 0 0 0-3.5h-2.844v-8.28a1.751 1.751 0 0 0 -1.75-1.75z"/><path d="m38.283 23.675a1.751 1.751 0 0 0 -1.75 1.75v10.03a1.75 1.75 0 0 0 3.5 0v-3.265h3.094v3.265a1.75 1.75 0 0 0 3.5 0v-10.03a1.75 1.75 0 0 0 -3.5 0v3.265h-3.094v-3.265a1.75 1.75 0 0 0 -1.75-1.75z"/></g><path d="m109 110.75a1.75 1.75 0 0 0 0-3.5h-90a1.75 1.75 0 0 0 0 3.5z" fill="#231887"/></g></svg>