<svg height="512" viewBox="0 0 128 128" width="512" xmlns="http://www.w3.org/2000/svg"><g><path d="m16.177 20.281h95.646a4.28 4.28 0 0 1 4.28 4.28v68.665a0 0 0 0 1 0 0h-104.203a0 0 0 0 1 0 0v-68.665a4.28 4.28 0 0 1 4.277-4.28z" fill="#d1d1fd"/><path d="m9.193 93.226h109.614a2.229 2.229 0 0 1 2.229 2.229v4.5a7.768 7.768 0 0 1 -7.768 7.768h-98.536a7.768 7.768 0 0 1 -7.768-7.768v-4.5a2.229 2.229 0 0 1 2.229-2.229z" fill="#696eaf"/><path d="m19.25 27.635h89.499v58.237h-89.499z" fill="#30c3ef"/><path d="m51.037 93.226h25.926a0 0 0 0 1 0 0v6.115a2.124 2.124 0 0 1 -2.124 2.124h-21.677a2.124 2.124 0 0 1 -2.124-2.124v-6.115a0 0 0 0 1 -.001 0z" fill="#4c5696"/><path d="m21.676 103.215a1.75 1.75 0 0 1 -1.75-1.75v-1.986a1.75 1.75 0 0 1 3.5 0v1.986a1.749 1.749 0 0 1 -1.75 1.75z" fill="#ff7a8c"/><path d="m30.592 103.215a1.75 1.75 0 0 1 -1.75-1.75v-1.986a1.75 1.75 0 0 1 3.5 0v1.986a1.749 1.749 0 0 1 -1.75 1.75z" fill="#fdcb71"/></g></svg>