<svg xmlns="http://www.w3.org/2000/svg" version="1.1" xmlns:xlink="http://www.w3.org/1999/xlink" width="512" height="512" x="0" y="0" viewBox="0 0 128 128" style="enable-background:new 0 0 512 512" xml:space="preserve"><g><path fill="#ff3e3e" d="M97.072 26.538H74.629a4.539 4.539 0 0 0-4.58 3.977 4.412 4.412 0 0 0 4.391 4.845H86.4L69.056 52.706a26.925 26.925 0 1 0 6.244 6.238L92.64 41.6v11.771a4.54 4.54 0 0 0 3.979 4.58 4.413 4.413 0 0 0 4.844-4.391V30.949a4.395 4.395 0 0 0-4.391-4.411zM53.429 92.64A18.07 18.07 0 1 1 71.5 74.571 18.089 18.089 0 0 1 53.429 92.64z" opacity="1" data-original="#feb4c3"></path></g></svg>