<svg xmlns="http://www.w3.org/2000/svg" version="1.1" xmlns:xlink="http://www.w3.org/1999/xlink" width="512" height="512" x="0" y="0" viewBox="0 0 128 128" style="enable-background:new 0 0 512 512" xml:space="preserve" class=""><g><path fill="#b49bff" d="M114.312 78.625h-7.041A26 26 0 0 0 76.19 38.333a30.389 30.389 0 0 0-54.327 24.758h-.409A19.7 19.7 0 0 0 1.75 82.8a19.7 19.7 0 0 0 19.7 19.7h92.858a11.938 11.938 0 1 0 0-23.875z" opacity="1" data-original="#59c8ff" class=""></path><path fill="#9877fc" d="M29 57.643a1.751 1.751 0 0 1-1.75-1.75A24.17 24.17 0 0 1 51.391 31.75a1.75 1.75 0 0 1 0 3.5 20.666 20.666 0 0 0-20.643 20.643A1.75 1.75 0 0 1 29 57.643z" opacity="1" data-original="#4da6ff" class=""></path></g></svg>