<svg height="512" viewBox="0 0 128 128" width="512" xmlns="http://www.w3.org/2000/svg"><g><path d="m50.553 45.667-10.386-18.334-10.386 18.334-20.781 36.666h62.333z" fill="#7ec242"/><path d="m71.333 82.333-8.378-14.786 17.087-40.214 7.791-18.333 7.792 18.333 23.375 55z" fill="#6cb544"/><g fill="#0a485e"><path d="m95.625 27.333h-15.583l7.791-18.333z"/><path d="m50.553 45.667h-20.772l10.386-18.334z"/><path d="m108.917 87.917h-57.75a5.584 5.584 0 1 1 0-11.167h29.333a9.093 9.093 0 0 0 9.083-9.083 1.75 1.75 0 0 0 -3.5 0 5.589 5.589 0 0 1 -5.583 5.583h-29.333a9.084 9.084 0 1 0 0 18.167h57.75a8.333 8.333 0 0 1 0 16.666h-99.917a1.75 1.75 0 0 0 0 3.5h99.917a11.833 11.833 0 0 0 0-23.666z"/></g><path d="m25.5 82.333a11 11 0 0 0 -11 11c0 11 11 25.667 11 25.667s11-14.667 11-25.667a11 11 0 0 0 -11-11zm0 14.667a3.667 3.667 0 1 1 3.667-3.667 3.667 3.667 0 0 1 -3.667 3.667z" fill="#f47721"/></g></svg>