<svg xmlns="http://www.w3.org/2000/svg" version="1.1" xmlns:xlink="http://www.w3.org/1999/xlink" width="512" height="512" x="0" y="0" viewBox="0 0 128 128" style="enable-background:new 0 0 512 512" xml:space="preserve" class=""><g><path fill="#5ccafe" d="M55.05 47.36a22.18 22.18 0 1 0-25.68 21.91v8.05h-6.95a3.5 3.5 0 0 0 0 7h6.95v15a3.5 3.5 0 0 0 7 0v-15h6.96a3.5 3.5 0 0 0 0-7h-6.96v-8.05a22.18 22.18 0 0 0 18.68-21.91zM32.87 62.55a15.185 15.185 0 1 1 15.18-15.19 15.206 15.206 0 0 1-15.18 15.19z" opacity="1" data-original="#ffa4b5" class=""></path><path fill="#ff3e3e" d="m116.25 45.99-13.62-1.05-5.89 5.89 9.23.5-10.65 10.64a22.227 22.227 0 1 0 4.94 4.95l10.64-10.63.46 9.17 5.95-6.01zM82.3 95.1a15.173 15.173 0 1 1 15.18-15.18A15.2 15.2 0 0 1 82.3 95.1z" opacity="1" data-original="#add3d8" class=""></path></g></svg>