<svg xmlns="http://www.w3.org/2000/svg" version="1.1" xmlns:xlink="http://www.w3.org/1999/xlink" width="512" height="512" x="0" y="0" viewBox="0 0 128 128" style="enable-background:new 0 0 512 512" xml:space="preserve" class=""><g><path fill="#bababa" d="M119.182 2.412c-44.609 2.9-77.205 43.746-96.94 78.21l6.924 3.965a11.392 11.392 0 0 1 4.348-4.49c18.763-31.197 48.012-65.78 86.345-68.256a4.727 4.727 0 0 0-.677-9.429z" opacity="1" data-original="#d9f2ff"></path><path fill="#5b5555" d="M27.836 89.913a11.288 11.288 0 0 1 1.33-5.326l-8.565-4.9a309.986 309.986 0 0 0-18.516 38.169 4.722 4.722 0 0 0 2.805 6.19l3.57 1.275a4.717 4.717 0 0 0 5.972-2.684A299.009 299.009 0 0 1 28.3 93.1a11.339 11.339 0 0 1-.464-3.187zM40.123 112.006h-1.89a2.836 2.836 0 0 1-2.836-2.835V89.913h7.562v19.258a2.836 2.836 0 0 1-2.836 2.835z" opacity="1" data-original="#5b5555" class=""></path><path fill="#57d9d4" d="M50.756 107.989h-7.8v-6.143h7.8a3.072 3.072 0 0 1 3.072 3.072 3.072 3.072 0 0 1-3.072 3.071z" opacity="1" data-original="#57d9d4"></path><path fill="#ff9100" d="M39.178 78.572A11.335 11.335 0 0 0 35.4 100.6V89.913h7.562V100.6a11.335 11.335 0 0 0-3.781-22.024zM113.727 89.086a6.262 6.262 0 1 1 6.261 6.262 6.261 6.261 0 0 1-6.261-6.262z" opacity="1" data-original="#ff9100"></path><g fill="#57d9d4"><path d="M65.681 38.6c.21 9.778-2.213 17.482-7.265 22.95C52.9 67.519 45.2 69.782 39.5 70.62q-2.019 3.052-3.911 6.1c6.367-.306 18.512-2.161 26.964-11.281 6.945-7.492 9.793-18.157 8.52-31.723q-2.755 2.357-5.392 4.884z" fill="#57d9d4" opacity="1" data-original="#57d9d4"></path><path d="M110.232 13.175c-3.592 10.361-8.807 16.845-15.562 19.276-7.034 2.529-14.538.214-19.509-2.109a121.49 121.49 0 0 0-4.779 3.964c4.052 2.184 10.559 4.927 17.692 4.927a25.031 25.031 0 0 0 8.482-1.433c9.109-3.262 15.811-11.895 19.967-25.654a68.322 68.322 0 0 0-6.291 1.029zM119.988 82.825a6.229 6.229 0 0 1 2.836.684V10.493a4.635 4.635 0 0 1-2.965 1.348c-.909.058-1.808.152-2.706.246v71.422a6.228 6.228 0 0 1 2.835-.684zM119.988 95.348a6.228 6.228 0 0 1-2.835-.684v15.393a4.667 4.667 0 1 1-9.333 0v-13.4l-8.854 7.081a3.781 3.781 0 0 0 2.362 6.733h.829a10.338 10.338 0 0 0 20.667-.413V94.664a6.229 6.229 0 0 1-2.836.684z" fill="#57d9d4" opacity="1" data-original="#57d9d4"></path></g></g></svg>