<svg height="512" viewBox="0 0 128 128" width="512" xmlns="http://www.w3.org/2000/svg"><g><path d="m97.592 65.727v41.733a3.951 3.951 0 0 1 -3.718 4.148 3.951 3.951 0 0 1 -3.718-4.148v-41.733l3.718-16.973v-20.664a3.951 3.951 0 0 1 3.718-4.149 3.951 3.951 0 0 1 3.717 4.149v20.664z" fill="#f93e55"/><path d="m78.941 31.073h18.619v11.27h-18.619z" fill="#fff5dc" transform="matrix(0 -1 1 0 51.542 124.958)"/><path d="m88.25 42.471h-5.635a1.75 1.75 0 0 1 0-3.5h5.635a1.75 1.75 0 0 1 0 3.5z" fill="#fce8be"/><path d="m88.25 34.928h-5.635a1.75 1.75 0 0 1 0-3.5h5.635a1.75 1.75 0 1 1 0 3.5z" fill="#fce8be"/><g fill="#62dff4"><path d="m75.451 30.353v14.77a3.686 3.686 0 0 0 3.23 3.719 3.583 3.583 0 0 0 3.934-3.565v-17.816c0-2.152-1.555-4.886-5.294-5.294-3.63 0-5.767 1.492-6.206 3.786a4.4 4.4 0 0 1 4.336 4.4z"/><path d="m52.647 36.168h-6.796-6.796l-6.796 11.567h13.592 13.592z"/><path d="m59.443 47.735h-13.592-13.592l-6.796 64.114h20.388 20.388z"/></g><path d="m51.647 23.701h-11.592l-1 12.467h13.592z" fill="#2b74f7"/><path d="m64.959 99.777-5.516-52.042h-13.592-13.592l-5.516 52.042z" fill="#92e8fc"/></g></svg>