<svg height="512" viewBox="0 0 128 128" width="512" xmlns="http://www.w3.org/2000/svg"><g><path d="m51.225 94.5-1.4-7.368.491-.093a3.75 3.75 0 1 1 1.4 7.369z" fill="#423e4f"/><path d="m92.875 108.815h-.145a52.57 52.57 0 0 1 -24.417-5.915 41.02 41.02 0 0 0 -18.813-4.585c-16.27 0-30.062 9.763-34.9 20.75h100.593c-4.493-6.133-12.805-10.25-22.318-10.25z" fill="#ffd3a3"/><g fill="#ffbe74"><g><path d="m39.344 107.288h-1.021a1.75 1.75 0 1 1 0-3.5h1.021a1.75 1.75 0 1 1 0 3.5z"/><path d="m45.359 114.538h-1.022a1.75 1.75 0 0 1 0-3.5h1.022a1.75 1.75 0 0 1 0 3.5z"/><path d="m63.359 109.288h-1.022a1.75 1.75 0 0 1 0-3.5h1.022a1.75 1.75 0 0 1 0 3.5z"/><path d="m71.081 114.538h-1.022a1.75 1.75 0 0 1 0-3.5h1.022a1.75 1.75 0 0 1 0 3.5z"/><path d="m86.331 115.538h-1.022a1.75 1.75 0 0 1 0-3.5h1.022a1.75 1.75 0 0 1 0 3.5z"/><path d="m29.581 114.538h-1.022a1.75 1.75 0 0 1 0-3.5h1.022a1.75 1.75 0 1 1 0 3.5z"/></g><path d="m91.65 14.246a1.752 1.752 0 0 1 -1.612-1.068l-1.452-3.425a1.75 1.75 0 0 1 3.223-1.366l1.452 3.425a1.752 1.752 0 0 1 -1.611 2.434z"/><path d="m105.026 14.134a1.751 1.751 0 0 1 -1.621-2.407l1.4-3.448a1.75 1.75 0 0 1 3.244 1.314l-1.4 3.448a1.75 1.75 0 0 1 -1.623 1.093z"/><path d="m114.567 23.515a1.75 1.75 0 0 1 -.684-3.362l3.425-1.452a1.75 1.75 0 0 1 1.367 3.223l-3.425 1.452a1.76 1.76 0 0 1 -.683.139z"/><path d="m118.125 38.289a1.725 1.725 0 0 1 -.655-.129l-3.449-1.395a1.75 1.75 0 0 1 1.313-3.244l3.448 1.395a1.751 1.751 0 0 1 -.657 3.373z"/><path d="m106.75 49.857a1.75 1.75 0 0 1 -1.612-1.067l-1.453-3.425a1.75 1.75 0 1 1 3.223-1.365l1.452 3.425a1.75 1.75 0 0 1 -1.61 2.434z"/><path d="m90.522 49.993a1.751 1.751 0 0 1 -1.622-2.407l1.4-3.449a1.75 1.75 0 1 1 3.244 1.312l-1.4 3.449a1.75 1.75 0 0 1 -1.622 1.095z"/><path d="m78.956 38.615a1.751 1.751 0 0 1 -.685-3.362l3.429-1.453a1.75 1.75 0 1 1 1.367 3.222l-3.424 1.453a1.76 1.76 0 0 1 -.687.14z"/><path d="m82.268 23.784a1.748 1.748 0 0 1 -.656-.128l-3.448-1.395a1.75 1.75 0 1 1 1.313-3.244l3.448 1.395a1.75 1.75 0 0 1 -.657 3.372z"/></g><path d="m90.917 21.033a10.685 10.685 0 1 1 0 15.111 10.685 10.685 0 0 1 0-15.111z" fill="#fad271"/><path d="m54.106 111.44a1.751 1.751 0 0 1 -1.717-1.424l-14.872-78.351a1.75 1.75 0 0 1 3.439-.653l14.872 78.351a1.752 1.752 0 0 1 -1.722 2.077z" fill="#6c8199"/><path d="m80.745 58.317-.145-.777c-3.193-16.821-21.506-27.472-40.9-23.79-19.4 3.682-32.534 20.3-29.342 37.123l.148.777z" fill="#ff7591"/><path d="m61.768 61.919-.147-.777c-3.193-16.821-13.01-29.084-21.921-27.392-8.916 1.692-13.557 16.7-10.364 33.521l.148.777z" fill="#fad271"/><path d="m10.5 71.65 18.979-3.6a5.631 5.631 0 0 1 -4.479 6.579l-7.916 1.5a5.629 5.629 0 0 1 -6.584-4.479z" fill="#fad271"/><path d="m61.768 61.919-32.29 6.129a5.629 5.629 0 0 0 6.58 4.481l21.23-4.029a5.631 5.631 0 0 0 4.48-6.581z" fill="#ff7591"/><path d="m61.768 61.919 18.978-3.6a5.63 5.63 0 0 1 -4.481 6.58l-7.917 1.5a5.628 5.628 0 0 1 -6.58-4.48z" fill="#fad271"/></g></svg>