<svg height="512" viewBox="0 0 128 128" width="512" xmlns="http://www.w3.org/2000/svg"><g><path d="m124 122.247h-10.78l-2.687-9.009a1.749 1.749 0 0 0 -3.353 1l2.389 8.009h-60.164l2.388-8.009a1.749 1.749 0 0 0 -3.353-1l-2.687 9.009h-13.676a1.75 1.75 0 1 0 0 3.5h91.923a1.75 1.75 0 0 0 0-3.5z" fill="#d05d4c"/><path d="m17.991 125.75a1.751 1.751 0 0 1 -1.672-2.27l23.13-74.44a1.75 1.75 0 0 1 3.343 1.039l-23.13 74.441a1.751 1.751 0 0 1 -1.671 1.23z" fill="#d05d4c"/><rect fill="#f58b5f" height="10.258" rx="4" width="74.64" x="42.317" y="103.48"/><path d="m72.56 79.951h5.226a1.75 1.75 0 0 0 0-3.5h-31.6a1.75 1.75 0 0 0 0 3.5h22.233l7.888 12.465a1.75 1.75 0 0 0 2.958-1.871z" fill="#d05d4c"/><path d="m53.136 10.9a22.108 22.108 0 0 0 -4.082 1.236c-6.569 2.576-19.614 10.124-28.212 31.128l-13.432-4.173a4.831 4.831 0 0 1 -3.01-6.591 40.49 40.49 0 0 1 43.952-22.764 38.8 38.8 0 0 1 4.784 1.164z" fill="#ef5b6e"/><path d="m61.578 55.921-40.736-12.657c8.6-21 21.643-28.552 28.212-31.124a22.108 22.108 0 0 1 4.082-1.24l.174.054a22.831 22.831 0 0 1 2.722 3.426c3.952 5.896 10.329 19.48 5.546 41.541z" fill="#ffce65"/><path d="m74.836 60.041-13.258-4.12c4.783-22.061-1.594-35.645-5.546-41.537a22.831 22.831 0 0 0 -2.722-3.426 41.093 41.093 0 0 1 4.743 1.83 40.531 40.531 0 0 1 23 43.529 4.832 4.832 0 0 1 -6.217 3.724z" fill="#ef5b6e"/><path d="m58.954 11.073a5.249 5.249 0 0 1 -.9 1.715 41.093 41.093 0 0 0 -4.743-1.83l-.174-.054a38.8 38.8 0 0 0 -4.784-1.168 5.326 5.326 0 0 1 .23-1.886 5.431 5.431 0 1 1 10.372 3.223z" fill="#d05d4c"/><path d="m22.76 125.747h-13.92a1.75 1.75 0 1 1 0-3.5h13.92a1.75 1.75 0 1 1 0 3.5z" fill="#d05d4c"/><path d="m111.92 97.48a6 6 0 0 1 -6 6h-53.04a6 6 0 0 1 -2.68-.63 6.086 6.086 0 0 1 -2.12-1.76l-16.11-22.1-3.92-5.38a6 6 0 0 1 1.19-8.4 5.96 5.96 0 0 1 7.05-.11 5.675 5.675 0 0 1 1.35 1.29l16.43 22.7a6.01 6.01 0 0 0 4.79 2.39h47.06a6 6 0 0 1 6 6z" fill="#ffce65"/></g></svg>