<svg xmlns="http://www.w3.org/2000/svg" version="1.1" xmlns:xlink="http://www.w3.org/1999/xlink" width="512" height="512" x="0" y="0" viewBox="0 0 128 128" style="enable-background:new 0 0 512 512" xml:space="preserve" class=""><g><path fill="#808cff" d="M22.333 95V67.452A41.667 41.667 0 0 1 64 25.785a41.667 41.667 0 0 1 41.667 41.667V95z" opacity="1" data-original="#808cff"></path><path fill="#6d74f2" d="M39 95V69.586a50 50 0 0 1 19.746-39.808L64 25.785l5.254 3.993A50 50 0 0 1 89 69.586V95z" opacity="1" data-original="#6d74f2" class=""></path><path fill="#808cff" d="M55.667 95V66.574A99.992 99.992 0 0 1 61.3 33.485l2.7-7.7 2.7 7.7a99.993 99.993 0 0 1 5.633 33.09V95z" opacity="1" data-original="#808cff"></path><g fill="#fee8a8"><circle cx="64" cy="21.083" r="14.083" fill="#fc9952" opacity="1" data-original="#fee8a8" class=""></circle><rect width="100" height="26" x="14" y="95" rx="4.5" fill="#fc9952" opacity="1" data-original="#fee8a8" class=""></rect></g><g fill="#ffd766"><path d="M45.583 95h3.5v26h-3.5zM28.916 95h3.5v26h-3.5zM62.25 95h3.5v26h-3.5zM78.917 95h3.5v26h-3.5zM95.583 95h3.5v26h-3.5z" fill="#ffd766" opacity="1" data-original="#ffd766" class=""></path></g></g></svg>